PathFileType	4	(X/Y/Z)	s09c0202.trc
DataRate	CameraRate	NumFrames	NumMarkers	Units	OrigDataRate	OrigDataStartFrame	OrigNumFrames
200	200	5	50	mm	200	750	2000
Frame#	Time	racr			lacr			c7			jug			rlel			rdr			llel			ldr			s2			lic			ric			lasi			rasi			rpsi			lpsi			rgt			lgt			rth1			rth2			rth3			rth4			rlfc			rmfc			rsh1			rsh2			rsh3			rsh4			rlmal			rmmal			rcal			rtoe			rmt5			lth1			lth2			lth4			lth3			llfc			lmfc			llmal			lmmal			lcal			lmt5			lsh1			lsh2			lsh3			lsh4			ltoe			SBIKE			LBIKE			RBIKE			
		X1	Y1	Z1	X2	Y2	Z2	X3	Y3	Z3	X4	Y4	Z4	X5	Y5	Z5	X6	Y6	Z6	X7	Y7	Z7	X8	Y8	Z8	X9	Y9	Z9	X10	Y10	Z10	X11	Y11	Z11	X12	Y12	Z12	X13	Y13	Z13	X14	Y14	Z14	X15	Y15	Z15	X16	Y16	Z16	X17	Y17	Z17	X18	Y18	Z18	X19	Y19	Z19	X20	Y20	Z20	X21	Y21	Z21	X22	Y22	Z22	X23	Y23	Z23	X24	Y24	Z24	X25	Y25	Z25	X26	Y26	Z26	X27	Y27	Z27	X28	Y28	Z28	X29	Y29	Z29	X30	Y30	Z30	X31	Y31	Z31	X32	Y32	Z32	X33	Y33	Z33	X34	Y34	Z34	X35	Y35	Z35	X36	Y36	Z36	X37	Y37	Z37	X38	Y38	Z38	X39	Y39	Z39	X40	Y40	Z40	X41	Y41	Z41	X42	Y42	Z42	X43	Y43	Z43	X44	Y44	Z44	X45	Y45	Z45	X46	Y46	Z46	X47	Y47	Z47	X48	Y48	Z48	X49	Y49	Z49	X50	Y50	Z50	
750	3.7500	517.777366	1231.468638	-93.515016	476.783239	1219.833138	-440.440040	477.721734	1301.366735	-265.190616	455.266719	1165.920143	-260.464407	474.825571	1023.014202	52.599647	669.268126	906.848985	-32.458191	419.665429	961.301914	-542.824813	652.318018	909.677363	-451.280715	-5.657067	1129.105313	-196.608246	111.143423	1153.795784	-355.954603	143.992496	1110.804258	-58.456969	158.093409	1097.125730	-339.302040	185.738364	1061.985349	-87.933076	28.412013	1151.839949	-136.343587	13.024782	1174.877698	-240.084934	116.727244	963.663808	-32.482747	98.717623	1049.700875	-402.766104	208.541883	857.524056	-49.027708	278.112825	804.735956	-59.267833	306.647334	722.085922	-76.398928	303.803933	824.830001	-76.843073	345.752392	632.803965	-115.106222	322.483912	619.491776	-210.711691	288.040431	551.429778	-79.512817	269.853887	464.314468	-91.881131	212.022488	398.799020	-85.395918	289.876842	456.771746	-125.885572	162.759825	309.312657	-80.084784	164.391856	313.068921	-158.823540	81.448143	324.186448	-118.041048	272.595297	140.345857	-128.607865	204.011587	183.787015	-61.870886	228.021457	986.109728	-399.668228	311.789626	975.512096	-388.431382	323.924251	1005.183374	-367.017195	384.432924	921.514925	-390.275954	462.608167	851.775004	-373.589505	472.857289	830.883100	-275.317672	296.687640	521.373116	-408.875391	306.176801	530.128781	-332.253101	220.231299	475.271661	-372.709115	393.440208	451.533138	-435.093197	418.451284	764.273852	-402.748819	398.205075	679.206483	-400.053859	336.863607	615.180783	-405.486122	420.313451	667.797737	-369.400205	482.684727	481.926988	-366.472154	-64.916134	852.050089	-238.636855	21.056092	84.568045	-442.157522	21.097165	84.045835	-43.813477	
751	3.7550	517.728144	1229.395678	-94.177272	475.887451	1219.500997	-441.635694	477.981323	1300.381382	-265.870115	454.317146	1165.093711	-261.619891	474.548466	1022.303213	53.465071	669.002824	906.646815	-31.945516	418.970755	960.402199	-543.371581	651.765565	909.604554	-451.957026	-6.008741	1128.240280	-196.417952	110.137394	1153.568189	-356.552879	143.918861	1110.333013	-58.845224	157.718944	1097.248178	-340.289267	185.392853	1061.584270	-88.802088	27.876902	1151.128615	-136.095774	12.447481	1174.195390	-239.900466	118.004448	963.283166	-33.094814	97.797802	1047.495746	-402.944323	211.513484	859.260772	-50.271370	281.683507	807.592939	-61.100620	311.578155	724.859487	-77.963249	306.917800	827.844088	-78.962960	350.132506	635.787432	-116.330147	325.907298	622.642575	-211.267889	290.916971	555.407567	-80.528204	270.157455	468.711081	-93.144533	211.555492	404.407936	-85.918484	290.559521	460.178253	-127.029090	160.607211	315.909631	-80.376693	162.027706	319.645178	-159.152366	79.558427	333.272905	-118.119072	265.132237	143.806631	-128.501572	197.929721	189.368602	-61.871486	226.856604	981.877356	-401.161249	310.590538	969.967400	-390.501975	323.385964	999.800733	-369.763583	382.542688	914.916536	-391.816658	460.955155	845.012285	-375.166155	470.878654	824.088658	-277.644692	300.218874	510.969200	-409.678447	309.547881	520.200455	-332.871437	225.360903	462.411592	-373.084338	399.189496	444.289944	-435.562741	416.996158	756.015020	-404.542672	398.361920	670.446593	-401.491036	338.308021	605.223519	-406.656348	420.685651	659.746143	-370.818368	487.331098	477.844224	-366.903088	-64.955545	851.937414	-238.925790	21.038345	84.414208	-442.159854	21.103226	84.017001	-43.830982	
752	3.7600	517.744239	1227.391037	-94.491734	475.297781	1219.318848	-442.636500	478.321818	1300.103689	-266.750644	453.626896	1164.451685	-262.636653	474.227063	1021.589300	54.385488	668.632282	906.457192	-31.574415	418.239816	959.729968	-543.889353	651.256822	909.548043	-452.658477	-6.378195	1127.359734	-196.388410	109.301288	1153.179313	-357.318937	143.703200	1109.668566	-59.427590	157.380490	1097.050103	-341.418739	185.244170	1061.292984	-89.596616	27.383025	1150.328449	-135.989220	11.874468	1173.231988	-239.805672	119.428711	962.925068	-33.671066	96.975938	1045.051515	-403.369389	214.565976	861.058130	-51.527064	285.290397	810.383232	-62.976141	316.238670	728.071811	-79.771871	309.976998	830.930235	-81.327304	354.269793	638.893973	-117.464259	328.155926	626.299240	-213.179185	293.718966	559.397507	-81.385235	271.073573	473.193337	-93.855049	211.195550	410.123121	-86.438242	291.176731	464.148462	-127.866802	158.444717	322.894275	-80.600924	159.588877	326.085791	-159.517916	77.464795	343.010064	-118.324942	258.126492	147.982134	-128.431500	192.089788	195.397999	-61.939686	225.728372	977.399097	-402.748715	309.250663	964.274075	-392.732606	322.764331	993.958199	-372.689618	380.140266	907.290595	-393.420220	456.913338	837.375495	-377.911981	468.690310	817.213180	-280.277011	303.966090	500.098283	-410.412316	312.907219	510.271276	-333.515837	230.905826	449.806417	-372.775542	404.648424	436.430169	-435.512107	415.489306	747.089236	-406.528221	398.414932	661.342576	-402.984694	339.779829	595.072364	-407.792512	421.090919	651.319372	-372.103136	491.687406	473.017345	-367.349406	-64.984540	851.830045	-239.242825	21.033203	84.248002	-442.189282	21.119198	83.985207	-43.848583	
753	3.7650	517.739629	1225.496430	-94.576196	474.759159	1219.312780	-443.613500	477.647276	1299.634871	-266.518474	453.245978	1163.961567	-263.579390	473.873952	1020.845884	55.400469	668.138197	906.277631	-31.363423	417.542403	959.271604	-544.276570	650.732709	909.446966	-453.390926	-6.858077	1126.358237	-196.506480	108.516298	1152.693564	-358.220189	143.818269	1109.173338	-59.997155	156.977256	1096.501139	-342.573412	185.238623	1060.961131	-90.512333	26.914756	1149.607939	-136.062990	11.514244	1172.319466	-239.877951	120.829441	962.625576	-34.372985	96.271980	1042.241429	-403.799084	217.542511	863.045473	-52.554809	288.814066	813.389831	-64.852808	320.713855	731.410796	-81.966767	312.982115	834.124112	-83.586228	358.256887	642.045936	-118.358038	331.167025	629.505438	-214.214454	296.365324	563.596596	-82.250373	271.894079	477.841702	-94.656492	210.704740	416.094687	-86.930612	291.816880	468.320660	-128.577392	156.340674	330.052304	-80.949427	157.291010	332.940196	-159.842564	75.820587	352.413894	-118.459185	251.350888	152.478657	-128.384703	186.495840	201.768305	-61.956917	224.546517	972.696648	-404.417401	307.977658	958.192836	-394.978330	322.205844	987.965234	-375.632920	377.837485	899.887797	-395.494274	453.673132	829.248028	-380.115688	466.846062	808.734661	-283.124312	307.669366	489.262077	-411.166942	316.162370	499.953488	-334.250488	235.893235	437.292172	-373.295114	409.879260	428.572388	-435.913793	413.667287	738.114130	-408.568077	398.423668	652.110184	-404.303504	341.231488	584.570560	-408.903479	421.115384	642.550865	-373.179556	495.828481	467.641558	-367.725144	-64.997925	851.787854	-239.588649	21.062562	84.139207	-442.270623	21.139346	83.984294	-43.844001	
754	3.7700	517.683844	1223.689744	-94.386764	474.524592	1219.469319	-444.429649	478.314173	1299.229564	-267.263986	453.142429	1163.591910	-264.322397	473.494961	1020.127341	56.324548	667.529666	906.110970	-31.326368	416.793269	959.100163	-544.586899	650.161384	909.322126	-454.027388	-7.184414	1125.497245	-196.832607	107.954323	1151.822040	-359.291548	143.696439	1108.365239	-60.829918	156.715699	1095.684738	-343.771818	185.193891	1060.583927	-91.611956	26.489209	1148.827631	-136.339152	11.303357	1171.351322	-240.401789	122.276019	962.366371	-34.994645	95.660684	1039.107266	-404.428859	220.306912	865.029410	-53.838812	292.199357	816.529201	-66.695029	324.673494	734.977289	-83.835802	315.826661	837.295350	-85.973790	361.952896	645.317247	-119.320101	334.081708	632.715067	-215.217992	298.884943	567.841497	-83.021482	272.561904	482.507300	-95.357233	210.125499	422.228052	-87.451434	292.191437	472.549263	-129.388580	154.109469	337.497869	-81.220251	157.320417	338.262249	-159.489440	74.246476	361.789543	-118.495103	245.047031	157.869623	-128.271704	181.308093	208.495988	-61.967245	223.353967	967.792057	-406.135911	306.637438	952.095736	-397.272715	321.721313	981.432638	-378.140792	375.467946	892.474511	-397.616085	450.423483	820.874446	-382.276709	465.006023	801.326549	-285.121696	311.276564	478.473130	-411.796220	319.410663	489.711058	-334.915371	240.627337	425.168187	-373.735359	414.805421	420.395918	-436.260542	411.902090	728.872924	-410.602350	398.355479	642.717654	-405.744951	342.747155	573.889229	-409.867582	421.404420	634.143703	-374.770530	499.772608	461.597305	-368.039629	-65.033340	851.715702	-239.801123	21.079254	84.060945	-442.254504	21.151565	83.967667	-43.858385	
